<svg width="173" height="184" viewBox="0 0 173 184" fill="none" xmlns="http://www.w3.org/2000/svg">
<path d="M92.0234 111.297L116.308 104.307L116.321 103.296C116.291 99.3315 116.198 84.4373 113.826 75.4553C113.443 73.8479 112.858 72.2955 112.084 70.8355C107.094 62.1075 73.5349 49.4754 73.5349 49.4754L74.4886 61.1051L96.4678 79.208C93.6698 92.3721 92.0234 111.297 92.0234 111.297Z" fill="#EB3651"/>
<path opacity="0.7" d="M92.0234 111.297L116.308 104.307L116.321 103.296C116.291 99.3315 116.198 84.4373 113.826 75.4553C113.443 73.8479 112.858 72.2955 112.084 70.8355C107.094 62.1075 73.5349 49.4754 73.5349 49.4754L74.4886 61.1051L96.4678 79.208C93.6698 92.3721 92.0234 111.297 92.0234 111.297Z" fill="white"/>
<path d="M78.7212 146.653C76.076 149.414 73.4634 152.33 70.8296 155.146C69.5176 156.577 68.1958 157.961 66.9325 159.318C65.6693 160.674 64.3344 161.997 63.158 163.076C62.876 163.345 62.5829 163.601 62.365 163.792C62.1471 163.984 61.9703 164.102 62.0232 164.123C62.113 164.091 62.2065 164.072 62.3013 164.064L62.3708 164.049L62.2936 164.066L62.139 164.098L61.53 164.348L60.2748 164.863C58.574 165.561 56.7675 166.217 54.963 166.92C51.3492 168.304 47.6239 169.696 43.9943 171.35L43.9248 171.365C43.189 171.705 42.5888 172.282 42.2206 173.004C41.8523 173.726 41.7373 174.551 41.894 175.346C42.0507 176.142 42.47 176.861 43.0846 177.39C43.6993 177.918 44.4737 178.225 45.2835 178.26C49.3829 178.392 53.4863 178.214 57.5589 177.727C59.6007 177.498 61.6461 177.171 63.748 176.768C64.2734 176.657 64.7911 176.548 65.3396 176.432L66.1508 176.261L66.4599 176.195L66.7071 176.143C67.0296 176.027 67.3487 175.895 67.6679 175.763C68.4154 175.406 69.1385 175 69.8324 174.547C70.4232 174.173 70.9211 173.817 71.413 173.471C73.3278 172.066 74.8635 170.701 76.4887 169.301C78.1138 167.901 79.5267 166.489 80.9937 165.066C83.8946 162.177 86.6594 159.294 89.3129 156.151C89.9433 155.46 90.4312 154.651 90.7489 153.771C91.0666 152.89 91.2079 151.956 91.1646 151.022C91.1213 150.087 90.8943 149.17 90.4966 148.323C90.0989 147.476 89.5382 146.715 88.8467 146.085C88.1551 145.455 87.3461 144.967 86.466 144.649C85.5859 144.331 84.6517 144.19 83.717 144.233C82.7823 144.277 81.8653 144.504 81.0183 144.901C80.1713 145.299 79.4109 145.86 78.7805 146.551L78.7212 146.653Z" fill="#EB3651"/>
<path opacity="0.7" d="M78.7212 146.653C76.076 149.414 73.4634 152.33 70.8296 155.146C69.5176 156.577 68.1958 157.961 66.9325 159.318C65.6693 160.674 64.3344 161.997 63.158 163.076C62.876 163.345 62.5829 163.601 62.365 163.792C62.1471 163.984 61.9703 164.102 62.0232 164.123C62.113 164.091 62.2065 164.072 62.3013 164.064L62.3708 164.049L62.2936 164.066L62.139 164.098L61.53 164.348L60.2748 164.863C58.574 165.561 56.7675 166.217 54.963 166.92C51.3492 168.304 47.6239 169.696 43.9943 171.35L43.9248 171.365C43.189 171.705 42.5888 172.282 42.2206 173.004C41.8523 173.726 41.7373 174.551 41.894 175.346C42.0507 176.142 42.47 176.861 43.0846 177.39C43.6993 177.918 44.4737 178.225 45.2835 178.26C49.3829 178.392 53.4863 178.214 57.5589 177.727C59.6007 177.498 61.6461 177.171 63.748 176.768C64.2734 176.657 64.7911 176.548 65.3396 176.432L66.1508 176.261L66.4599 176.195L66.7071 176.143C67.0296 176.027 67.3487 175.895 67.6679 175.763C68.4154 175.406 69.1385 175 69.8324 174.547C70.4232 174.173 70.9211 173.817 71.413 173.471C73.3278 172.066 74.8635 170.701 76.4887 169.301C78.1138 167.901 79.5267 166.489 80.9937 165.066C83.8946 162.177 86.6594 159.294 89.3129 156.151C89.9433 155.46 90.4312 154.651 90.7489 153.771C91.0666 152.89 91.2079 151.956 91.1646 151.022C91.1213 150.087 90.8943 149.17 90.4966 148.323C90.0989 147.476 89.5382 146.715 88.8467 146.085C88.1551 145.455 87.3461 144.967 86.466 144.649C85.5859 144.331 84.6517 144.19 83.717 144.233C82.7823 144.277 81.8653 144.504 81.0183 144.901C80.1713 145.299 79.4109 145.86 78.7805 146.551L78.7212 146.653Z" fill="white"/>
<path d="M62.0464 164.118C62.0464 164.118 68.6319 170.58 68.4469 175.324L69.8845 174.488C69.8845 174.488 67.7191 166.294 62.4037 163.784L62.0464 164.118Z" fill="#EB3651"/>
<path d="M42.5692 172.054L36.0468 174.303L41.4183 179.754C41.4183 179.754 47.111 177.399 45.7748 174.509L42.5692 172.054Z" fill="#EB3651"/>
<path d="M31.6858 179.565L37.8967 182.684L41.4182 179.754L36.0467 174.303L31.6858 179.565Z" fill="#EB3651"/>
<g opacity="0.5">
<path opacity="0.5" d="M42.5692 172.054L36.0469 174.303L41.4183 179.754C41.4183 179.754 47.111 177.399 45.7748 174.509L42.5692 172.054Z" fill="white"/>
<path opacity="0.5" d="M31.6859 179.565L37.8967 182.685L41.4182 179.754L36.0468 174.303L31.6859 179.565Z" fill="white"/>
</g>
<path d="M42.5692 172.054C42.5692 172.054 46.0181 174.821 44.3374 178.137L45.3196 178.317C45.3196 178.317 48.4694 175.231 44.0272 171.391L42.5692 172.054Z" fill="#EB3651"/>
<path opacity="0.4" d="M62.0464 164.118C62.0464 164.118 68.6319 170.58 68.4469 175.324L69.8845 174.488C69.8845 174.488 67.7191 166.294 62.4037 163.784L62.0464 164.118Z" fill="white"/>
<path opacity="0.4" d="M42.5692 172.054C42.5692 172.054 46.0181 174.821 44.3374 178.137L45.3196 178.317C45.3196 178.317 48.4694 175.231 44.0272 171.391L42.5692 172.054Z" fill="white"/>
<path d="M75.7664 52.9749L76.0246 59.7802C76.0931 60.1047 74.8244 61.0907 74.4873 61.1377L66.959 62.2909C66.5619 62.3261 66.167 62.2035 65.8597 61.9497C65.5524 61.6959 65.3574 61.3312 65.3169 60.9347C65.0724 57.5968 65.0817 55.9969 64.7736 51.7847C64.5511 49.2007 63.8574 44.1176 64.1028 40.5391C64.3482 36.9606 67.8861 37.3194 68.0927 38.8334C68.6037 42.4782 71.4266 47.2491 73.5271 49.477C73.8998 49.8664 75.7422 52.4393 75.7664 52.9749Z" fill="#EB3651"/>
<path opacity="0.5" d="M76.5174 53.2441L75.668 60.4607C75.7365 60.7852 74.8399 61.0874 74.5028 61.1344L66.9745 62.2876C66.5775 62.3228 66.1826 62.2002 65.8752 61.9464C65.5679 61.6926 65.3729 61.3279 65.3324 60.9314C65.0879 57.5935 65.0972 55.9936 64.7892 51.7814C64.5666 49.1974 63.873 44.1143 64.1183 40.5358C64.3637 36.9573 67.9016 37.3161 68.1082 38.8301C68.6193 42.4749 71.4421 47.2458 73.5426 49.4737C73.8999 49.8664 76.4699 52.7134 76.5174 53.2441Z" fill="white"/>
<path opacity="0.1" d="M116.321 103.296C116.291 99.3315 116.198 84.4373 113.826 75.4553C112.405 79.6612 109.417 90.049 110.676 99.8387C111.262 104.719 113.648 105.24 116.321 103.296Z" fill="black"/>
<path d="M94.3054 114.883C94.3054 114.883 93.2466 99.773 108.091 93.8232C108.091 93.8232 116.21 77.3085 127.178 60.1441L111.493 22.8048L118.715 17.0676C118.715 17.0676 142.027 42.6286 143.516 62.2238C145.005 81.8189 122.497 114.816 122.497 114.816L94.3054 114.883Z" fill="#EB3651"/>
<path opacity="0.7" d="M94.3054 114.883C94.3054 114.883 93.2466 99.773 108.091 93.8232C108.091 93.8232 116.21 77.3085 127.178 60.1441L111.493 22.8048L118.715 17.0676C118.715 17.0676 142.027 42.6286 143.516 62.2238C145.005 81.8189 122.497 114.816 122.497 114.816L94.3054 114.883Z" fill="white"/>
<path d="M116.9 94.2236C117.179 95.559 116.941 96.9505 116.235 98.1179C115.529 99.2852 114.407 100.142 113.095 100.515L94.8246 105.719C93.6576 106.053 92.4121 105.983 91.2895 105.522C90.1669 105.06 89.2329 104.233 88.6384 103.175C88.4301 102.808 88.2663 102.417 88.1506 102.011C88.1245 101.887 88.0984 101.764 88.0723 101.64C87.7915 100.306 88.0272 98.9146 88.7319 97.7473C89.4366 96.58 90.5579 95.7236 91.8694 95.3507L110.14 90.1465C111.515 89.7587 112.987 89.9315 114.235 90.627C115.483 91.3225 116.405 92.4842 116.798 93.8576C116.84 93.978 116.878 94.1232 116.9 94.2236Z" fill="#EB3651"/>
<path opacity="0.2" d="M115.641 92.7704C115.92 94.1045 115.683 95.4948 114.979 96.6616C114.274 97.8284 113.154 98.6852 111.843 99.0597L93.5732 104.264C92.7287 104.504 91.8381 104.534 90.9793 104.351C90.1205 104.168 89.3196 103.778 88.6466 103.214C88.4382 102.846 88.2745 102.455 88.1588 102.049C88.1327 101.926 88.1066 101.802 88.0805 101.679C87.7996 100.344 88.0353 98.9532 88.7401 97.7859C89.4448 96.6187 90.5661 95.7622 91.8776 95.3893L110.148 90.1852C110.992 89.9447 111.883 89.9147 112.742 90.0977C113.601 90.2808 114.402 90.6714 115.075 91.2355C115.283 91.6027 115.447 91.9935 115.562 92.3995C115.58 92.4845 115.606 92.6081 115.641 92.7704Z" fill="white"/>
<path d="M124.42 115.935C123.779 113.145 122.272 110.63 120.114 108.75C117.955 106.87 115.257 105.722 112.406 105.47C102.024 104.191 105.972 115.939 105.972 115.939L124.168 116.731L124.42 115.935Z" fill="#EB3651"/>
<path opacity="0.4" d="M124.42 115.935C123.779 113.145 122.272 110.63 120.114 108.75C117.955 106.87 115.257 105.722 112.406 105.47C102.024 104.191 105.972 115.939 105.972 115.939L124.168 116.731L124.42 115.935Z" fill="white"/>
<path d="M109.632 106.822C109.632 106.822 119.88 107.08 123.536 114.653C127.192 122.226 117.205 142.621 112.163 146.914C107.121 151.206 84.9914 159 81.6007 156.318C69.9184 147.082 86.0608 124.686 91.9818 118.747C97.9028 112.808 109.632 106.822 109.632 106.822Z" fill="#EB3651"/>
<path opacity="0.7" d="M81.6041 156.334C81.7637 156.456 81.942 156.552 82.1321 156.618C84.1394 157.372 89.0622 156.454 94.4096 154.833C101.137 152.792 108.544 149.647 111.666 147.309L112.165 146.921C116.054 143.591 122.902 130.653 124.133 121.459C124.498 118.751 124.366 116.366 123.504 114.652C119.85 107.094 109.6 106.821 109.6 106.821C109.6 106.821 97.8911 112.867 91.9481 118.778C86.0052 124.689 69.9169 147.075 81.6041 156.334Z" fill="white"/>
<path opacity="0.1" d="M82.1319 156.618C84.1393 157.372 89.0621 156.454 94.4095 154.833C103.103 140.352 94.721 132.413 94.721 132.413C85.0756 133.553 81.1713 147.975 82.1319 156.618Z" fill="black"/>
<path d="M116.321 103.296C116.321 103.296 112.925 95.1997 110.782 94.603C108.638 94.0063 88.3805 100.195 85.9486 101.749C83.5166 103.304 71.8742 118.803 71.6582 122.52C71.4421 126.238 77.698 134.465 77.698 134.465C77.698 134.465 93.0932 134.298 98.5895 130.515C104.086 126.732 115.743 108.244 116.321 103.296Z" fill="#EB3651"/>
<path opacity="0.5" d="M77.6965 134.457C77.6965 134.457 93.0901 134.282 98.5865 130.499C104.083 126.716 115.753 108.25 116.313 103.297C116.313 103.297 112.887 95.2078 110.775 94.5721C108.664 93.9363 88.3835 100.17 85.9422 101.718C83.5009 103.267 71.8695 118.779 71.6596 122.488C71.6786 123.604 71.938 124.702 72.4201 125.709C74.0509 129.65 77.6965 134.457 77.6965 134.457Z" fill="white"/>
<path opacity="0.2" d="M72.4232 125.724C74.5041 125.68 87.9842 125.272 93.05 121.782C98.537 117.993 110.215 99.5648 110.782 94.603C108.672 93.975 88.3898 100.201 85.9485 101.749C83.5072 103.298 71.8758 118.81 71.6659 122.519C71.6861 123.629 71.9443 124.722 72.4232 125.724Z" fill="white"/>
<path d="M91.9771 152.665C98.507 143.978 96.7582 131.642 88.071 125.113C79.3839 118.583 67.0481 120.331 60.5182 129.019C53.9883 137.706 55.7371 150.042 64.4243 156.571C73.1114 163.101 85.4472 161.353 91.9771 152.665Z" fill="#263238"/>
<path opacity="0.7" d="M91.9771 152.665C98.507 143.978 96.7582 131.642 88.071 125.113C79.3839 118.583 67.0481 120.331 60.5182 129.019C53.9883 137.706 55.7371 150.042 64.4243 156.571C73.1114 163.101 85.4472 161.353 91.9771 152.665Z" fill="white"/>
<path opacity="0.2" d="M86.3753 156.763C89.5287 154.759 92.0169 151.865 93.525 148.446C95.0332 145.028 95.4936 141.239 94.8481 137.559C94.2025 133.879 92.48 130.473 89.8984 127.772C87.3168 125.071 83.9921 123.196 80.3449 122.385C76.6977 121.574 72.8918 121.862 69.4087 123.214C65.9256 124.567 62.9218 126.921 60.7773 129.981C58.6327 133.041 57.4438 136.668 57.3608 140.403C57.2779 144.138 58.3047 147.815 60.3114 150.966C63.0017 155.188 67.2574 158.17 72.1442 159.257C77.0309 160.343 82.1492 159.447 86.3753 156.763Z" fill="black"/>
<path opacity="0.3" d="M96.2572 142.074C96.5392 134.238 92.0265 127.715 86.1778 127.504C80.3291 127.294 75.3592 133.475 75.0772 141.311C74.7952 149.147 79.3079 155.67 85.1565 155.881C91.0052 156.091 95.9752 149.91 96.2572 142.074Z" fill="black"/>
<path d="M80.901 149.945C80.901 149.945 85.2499 152.732 86.1363 151.616C87.0227 150.501 89.6783 152.798 91.0889 150.878C92.4995 148.958 94.9494 143.703 92.3263 139.802C89.7032 135.901 79.931 143.476 80.901 149.945Z" fill="#263238"/>
<path opacity="0.8" d="M80.901 149.945C80.901 149.945 85.2576 152.73 86.1363 151.616C86.2759 151.473 86.4505 151.369 86.6428 151.314C86.8352 151.259 87.0385 151.256 87.2326 151.304C88.4096 151.451 90.0737 152.262 91.0889 150.878C92.5011 148.966 94.9417 143.705 92.3263 139.802C91.2058 138.126 88.7651 138.569 86.4137 140.122C85.7783 140.545 85.1794 141.019 84.623 141.541C82.3476 143.684 80.5728 146.746 80.8525 149.6C80.894 149.721 80.8798 149.845 80.901 149.945Z" fill="white"/>
<path opacity="0.2" d="M80.901 149.945C80.901 149.945 85.2576 152.73 86.1363 151.616C86.2759 151.473 86.4505 151.369 86.6428 151.314C86.8352 151.259 87.0385 151.256 87.2326 151.304C90.9791 147.834 87.7125 142.108 86.4137 140.122C85.7784 140.545 85.1794 141.019 84.623 141.541C83.0729 144.08 81.8084 146.783 80.8525 149.6C80.894 149.721 80.8798 149.845 80.901 149.945Z" fill="black"/>
<path d="M73.1131 151.282C73.2467 151.267 73.3785 151.239 73.5071 151.199C77.1627 150.242 74.5744 143.065 71.8899 139.217C70.7227 137.511 69.4368 136.886 68.4458 137.047C67.1795 137.242 66.371 138.687 66.5763 140.807C66.7308 142.227 68.0452 143.943 68.0864 144.903C68.1276 145.862 69.7521 151.685 73.1131 151.282Z" fill="#263238"/>
<path opacity="0.9" d="M73.1131 151.282C73.2467 151.267 73.3785 151.239 73.5071 151.199C77.1627 150.242 74.5744 143.065 71.8899 139.217C70.7227 137.511 69.4368 136.886 68.4458 137.047C67.1795 137.242 66.371 138.687 66.5763 140.807C66.7308 142.227 68.0452 143.943 68.0864 144.903C68.1276 145.862 69.7521 151.685 73.1131 151.282Z" fill="white"/>
<path opacity="0.2" d="M73.1132 151.282C73.2468 151.267 73.3787 151.239 73.5072 151.199C77.1628 150.242 74.5745 143.065 71.8901 139.217C70.7228 137.511 69.4369 136.886 68.4459 137.047C68.2127 137.305 68.0012 137.582 67.8136 137.874C66.8412 139.347 69.0644 143.8 69.3253 145.037C69.4801 146.19 70.7008 149.871 73.1132 151.282Z" fill="black"/>
<path d="M83.7091 135.988C86.3081 141.266 88.0958 144.23 87.0007 148.295C85.3467 154.414 77.6672 155.615 73.5334 151.21C69.8147 147.241 66.1727 139.278 70.058 134.439C70.9154 133.368 72.0304 132.531 73.2989 132.007C74.5673 131.484 75.9477 131.29 77.3112 131.445C78.6747 131.6 79.9767 132.098 81.0955 132.892C82.2144 133.687 83.1136 134.752 83.7091 135.988Z" fill="#EBB376"/>
<path d="M76.752 141.758C76.9856 142.177 76.9379 142.639 76.687 142.789C76.4362 142.938 75.9973 142.732 75.7791 142.31C75.5609 141.888 75.5932 141.43 75.844 141.28C76.0949 141.13 76.4956 141.384 76.752 141.758Z" fill="#263238"/>
<path d="M72.0007 144.407C72.2327 144.818 72.1866 145.288 71.9358 145.438C71.6849 145.588 71.2444 145.374 71.0262 144.952C70.808 144.53 70.8403 144.071 71.0927 143.929C71.3452 143.787 71.761 143.998 72.0007 144.407Z" fill="#263238"/>
<path d="M73.6186 143.775C73.8049 145.291 73.7811 146.825 73.5478 148.334C73.9447 148.366 74.344 148.313 74.7192 148.18C75.0944 148.046 75.4371 147.835 75.7247 147.56L73.6186 143.775Z" fill="#D58745"/>
<path d="M74.6611 139.116C74.7004 139.084 74.7469 139.062 74.7966 139.051C74.8464 139.041 74.898 139.042 74.947 139.056C75.2719 139.195 75.6247 139.256 75.9775 139.235C76.3302 139.214 76.6731 139.111 76.9791 138.934C77.0407 138.891 77.1168 138.875 77.1906 138.888C77.2644 138.901 77.33 138.943 77.3732 139.004C77.3952 139.033 77.4111 139.066 77.4198 139.102C77.4286 139.137 77.43 139.174 77.424 139.21C77.418 139.246 77.4047 139.281 77.385 139.311C77.3652 139.342 77.3394 139.368 77.3091 139.389C76.9257 139.622 76.4922 139.761 76.0444 139.794C75.5966 139.827 75.1475 139.753 74.7341 139.577C74.6661 139.549 74.6117 139.495 74.5824 139.428C74.5531 139.36 74.5511 139.284 74.577 139.215C74.5993 139.178 74.6277 139.144 74.6611 139.116Z" fill="#263238"/>
<path d="M69.7482 141.421C69.7979 141.394 69.8542 141.382 69.9105 141.386C69.9473 141.389 69.9832 141.399 70.0162 141.415C70.0492 141.432 70.0785 141.454 70.1025 141.483C70.1265 141.511 70.1446 141.543 70.1558 141.578C70.167 141.613 70.171 141.65 70.1676 141.687C70.1391 142.13 70.005 142.56 69.7765 142.941C69.5481 143.322 69.232 143.643 68.8544 143.877C68.7875 143.91 68.7109 143.916 68.6394 143.896C68.5679 143.875 68.5067 143.828 68.4676 143.765C68.4497 143.733 68.4384 143.697 68.4345 143.661C68.4305 143.624 68.4339 143.587 68.4445 143.551C68.4551 143.516 68.4727 143.483 68.4961 143.455C68.5196 143.426 68.5486 143.403 68.5813 143.386C68.8811 143.199 69.1311 142.942 69.3099 142.637C69.4887 142.332 69.591 141.989 69.608 141.636C69.61 141.591 69.6241 141.547 69.6488 141.509C69.6734 141.471 69.7078 141.441 69.7482 141.421Z" fill="#263238"/>
<path d="M80.5071 149.455C80.4014 149.566 80.2803 149.681 80.1575 149.787L77.1554 148.985C77.1554 148.985 77.2232 148.809 77.3459 148.549C77.7391 147.659 78.7267 145.723 79.9471 145.579C80.0882 145.57 80.2299 145.576 80.37 145.594C80.8844 145.645 81.3634 145.879 81.7197 146.254C82.228 146.865 82.1875 147.858 80.5071 149.455Z" fill="#263238"/>
<path d="M80.3938 145.63L77.7231 148.615L77.3509 148.572C77.7441 147.682 78.7317 145.747 79.9521 145.602C80.0999 145.596 80.2479 145.606 80.3938 145.63Z" fill="white"/>
<path d="M80.5073 149.455C79.7499 148.429 80.9305 147.026 81.7435 146.289C82.2282 146.865 82.1876 147.858 80.5073 149.455Z" fill="#DE5753"/>
<path d="M80.5587 152.834L80.1642 152.151C80.8245 151.761 82.6409 150.579 83.137 149.756C83.9112 147.913 84.5519 146.016 85.0544 144.081L85.8187 144.299C85.7618 144.489 84.4938 149.034 83.8274 150.159C83.161 151.284 80.6896 152.766 80.5587 152.834Z" fill="#263238"/>
<path d="M80.6282 152.973L81.3742 152.492C81.4996 152.413 81.5886 152.288 81.6216 152.143C81.6546 151.998 81.629 151.847 81.5503 151.721C81.4682 151.597 81.3408 151.51 81.1954 151.479C81.0501 151.448 80.8983 151.475 80.7726 151.554L80.025 152.027C79.9012 152.107 79.8142 152.233 79.7827 152.377C79.7512 152.521 79.7777 152.672 79.8566 152.797C79.9357 152.922 80.0614 153.011 80.206 153.044C80.3506 153.077 80.5024 153.051 80.6282 152.973Z" fill="#263238"/>
<path d="M88.0973 139.113C88.2519 139.83 88.2622 140.571 88.1276 141.292C87.9931 142.013 87.7162 142.701 87.3133 143.314C86.228 144.939 84.3918 144.269 83.6244 142.583C82.9237 141.061 82.6506 138.391 84.2625 137.348C84.6181 137.129 85.0225 137.001 85.4395 136.976C85.8565 136.95 86.2733 137.028 86.6529 137.203C87.0324 137.378 87.3629 137.644 87.6149 137.977C87.8669 138.31 88.0326 138.7 88.0973 139.113Z" fill="#EBB376"/>
<path d="M70.6452 136.341C72.2308 135.441 76.5151 133.754 77.6948 134.449C78.8746 135.144 83.2206 145.525 85.5656 145.7C87.9106 145.875 91.038 141.422 90.0221 138.215C89.4892 136.38 88.2761 134.817 86.6305 133.846C86.6305 133.846 84.2266 125.363 75.3969 127.921C66.5672 130.479 65.9377 138.279 66.6027 140.817C67.4367 138.931 68.8536 137.362 70.6452 136.341Z" fill="#263238"/>
<path opacity="0.9" d="M70.6452 136.341C72.2308 135.441 76.5151 133.754 77.6948 134.449C78.8746 135.144 83.2206 145.525 85.5656 145.7C87.9106 145.875 91.038 141.422 90.0221 138.215C89.4892 136.38 88.2761 134.817 86.6305 133.846C86.6305 133.846 84.2266 125.363 75.3969 127.921C66.5672 130.479 65.9377 138.279 66.6027 140.817C67.4367 138.931 68.8536 137.362 70.6452 136.341Z" fill="white"/>
<path d="M61.4265 126.924L62.5478 126.348C65.5018 123.539 69.1587 121.58 73.1332 120.676C79.9963 119.009 91.4925 123.119 95.7741 134.878C95.9415 135.327 96.0775 135.742 96.1916 136.13C96.3091 136.472 96.4069 136.82 96.4845 137.173L96.4927 137.212C96.6017 137.65 96.6769 138.095 96.7175 138.545C97.6218 145.964 92.7224 152.728 92.7224 152.728C90.8925 155.341 88.5654 157.569 85.8741 159.282L84.374 158.751C95.7363 151.14 90.9732 137.941 90.9732 137.941L85.0702 130.851C85.0702 130.851 71.0736 120.4 59.3565 130.766L58.7068 130.403C59.5059 129.163 60.4163 127.998 61.4265 126.924Z" fill="#EB3651"/>
<path opacity="0.7" d="M58.6835 130.408L59.3239 130.765C71.0503 120.405 85.0391 130.857 85.0391 130.857L90.9422 137.948C90.9422 137.948 95.6821 151.151 84.3739 158.751L85.9142 159.282C87.0391 158.558 88.1036 157.745 89.0973 156.85C90.4909 155.64 91.72 154.251 92.7532 152.721C92.7532 152.721 97.6526 145.957 96.7483 138.538C96.7116 138.088 96.6364 137.642 96.5235 137.205C96.5167 137.191 96.5133 137.175 96.5137 137.159C96.4371 136.796 96.325 136.456 96.2147 136.125C96.1043 135.793 95.9662 135.33 95.7972 134.873C91.5216 123.105 80.0193 119.004 73.1563 120.671C69.2122 121.575 65.5795 123.511 62.6307 126.282L62.5709 126.343L61.4496 126.919C60.4218 127.994 59.4958 129.162 58.6835 130.408Z" fill="white"/>
<path opacity="0.2" d="M58.6835 130.408L59.3239 130.765C71.0503 120.405 85.0391 130.857 85.0391 130.857L90.9422 137.948C90.9422 137.948 95.6821 151.151 84.3739 158.751L85.9142 159.282C87.0391 158.558 88.1036 157.745 89.0973 156.85C91.8055 153.164 95.3897 142.731 91.8509 138.2C89.7035 135.494 87.8337 132.58 86.2699 129.5C86.2699 129.5 73.9879 120.673 62.592 126.29C62.2037 126.477 61.8065 126.698 61.411 126.927C60.3969 128.001 59.4839 129.166 58.6835 130.408Z" fill="black"/>
<path d="M85.6177 129.775C86.8422 129 88.4999 129.207 90.0556 130.153C91.4674 130.557 92.682 131.465 93.4688 132.704C94.2556 133.944 94.5599 135.43 94.324 136.879C94.5197 138.686 94.0069 140.271 92.7841 141.053C90.7196 142.361 87.4487 140.896 85.4625 137.757C83.4762 134.617 83.5675 131.111 85.6177 129.775Z" fill="#EB3651"/>
<path opacity="0.5" d="M85.6177 129.775C86.8422 129 88.4999 129.207 90.0556 130.153C91.4674 130.557 92.682 131.465 93.4688 132.704C94.2556 133.944 94.5599 135.43 94.324 136.879C94.5197 138.686 94.0069 140.271 92.7841 141.053C90.7196 142.361 87.4487 140.896 85.4625 137.757C83.4762 134.617 83.5675 131.111 85.6177 129.775Z" fill="white"/>
<path opacity="0.2" d="M88.3138 136.009C89.6761 138.142 91.9435 139.173 93.3741 138.266C94.8047 137.358 94.8388 134.882 93.4716 132.725C92.1044 130.568 89.842 129.561 88.419 130.466C86.9961 131.372 86.9466 133.852 88.3138 136.009Z" fill="white"/>
<path opacity="0.2" d="M59.6601 135.875C61.0567 135.776 62.4589 135.785 63.8542 135.902C65.0081 133.307 66.5894 130.925 68.5322 128.854C68.5322 128.854 66.2561 128.317 62.4928 130.064C61.1983 131.81 60.2379 133.78 59.6601 135.875Z" fill="white"/>
<path opacity="0.2" d="M61.7591 150.483C61.1718 146.011 61.7007 141.463 63.2987 137.246C61.9142 136.957 60.5781 136.706 59.4999 136.53C58.5886 140.548 58.4096 145.856 61.7591 150.483Z" fill="white"/>
<path d="M119.871 18.5265L113.056 25.2753C113.002 25.3345 112.938 25.3825 112.865 25.4164C112.793 25.4503 112.715 25.4694 112.635 25.4727C112.555 25.476 112.476 25.4634 112.401 25.4356C112.326 25.4078 112.258 25.3653 112.2 25.3107L106.521 20.2388C106.241 19.9569 106.084 19.576 106.083 19.1787C106.082 18.7815 106.238 18.4 106.517 18.1171C108.933 15.7994 110.21 14.8117 113.265 11.8507C115.116 10.0314 118.59 6.26374 121.506 4.17146C124.421 2.07917 126.415 5.02372 125.364 6.16541C122.88 8.88498 121.001 14.0915 120.618 17.1341C120.536 17.6701 120.272 18.1616 119.871 18.5265Z" fill="#EB3651"/>
<path opacity="0.5" d="M119.871 18.5265L113.056 25.2753C113.002 25.3345 112.938 25.3825 112.865 25.4164C112.793 25.4503 112.715 25.4694 112.635 25.4727C112.555 25.476 112.476 25.4634 112.401 25.4356C112.326 25.4078 112.258 25.3653 112.2 25.3107L106.521 20.2388C106.241 19.9569 106.084 19.576 106.083 19.1787C106.082 18.7815 106.238 18.4 106.517 18.1171C108.933 15.7994 110.21 14.8117 113.265 11.8507C115.116 10.0314 118.59 6.26374 121.506 4.17146C124.421 2.07917 126.415 5.02372 125.364 6.16541C122.88 8.88498 121.001 14.0915 120.618 17.1341C120.536 17.6701 120.272 18.1616 119.871 18.5265Z" fill="white"/>
<path d="M120.474 17.5599L121.417 19.0475L112.379 26.2009L111.584 24.9564L120.474 17.5599Z" fill="#EB3651"/>
<path d="M73.3636 49.2371C73.3636 49.2371 77.3324 56.3406 74.0854 61.4888L75.6978 62.0927C75.6978 62.0927 79.6978 55.809 75.2061 49.7844L73.3636 49.2371Z" fill="#EB3651"/>
<path d="M126.778 60.7693L126.761 59.1589C126.761 59.1589 132.457 53.2273 142.469 56.2306L143.167 59.5374C143.167 59.5374 134.472 55.8123 126.778 60.7693Z" fill="#EB3651"/>
<path d="M110.896 68.9556C110.896 68.9556 104.991 81.7346 96.3023 80.1064L95.7134 78.6166C95.7134 78.6166 103.486 79.7683 108.919 67.3474L110.896 68.9556Z" fill="#EB3651"/>
<path opacity="0.1" d="M111.667 147.317L112.166 146.929C116.055 143.598 122.904 130.661 124.135 121.467C119.764 123.697 108.634 129.621 105.688 133.899C102.197 138.962 106.116 147.052 111.667 147.317Z" fill="black"/>
<path opacity="0.4" d="M73.3636 49.2371C73.3636 49.2371 77.3324 56.3406 74.0854 61.4888L75.6978 62.0927C75.6978 62.0927 79.6978 55.809 75.2061 49.7844L73.3636 49.2371Z" fill="white"/>
<path opacity="0.4" d="M110.896 68.9556C110.896 68.9556 104.991 81.7346 96.3023 80.1064L95.7134 78.6166C95.7134 78.6166 103.486 79.7683 108.919 67.3474L110.896 68.9556Z" fill="white"/>
<path opacity="0.4" d="M120.474 17.5599L121.417 19.0475L112.379 26.2009L111.584 24.9564L120.474 17.5599Z" fill="white"/>
<path opacity="0.4" d="M126.778 60.7693L126.761 59.1589C126.761 59.1589 132.457 53.2273 142.469 56.2306L143.167 59.5374C143.167 59.5374 134.472 55.8123 126.778 60.7693Z" fill="white"/>
<path d="M122.511 132.624C122.255 132.678 121.987 132.645 121.751 132.531C121.515 132.417 121.324 132.228 121.207 131.993C121.09 131.758 121.054 131.492 121.105 131.234C121.156 130.977 121.291 130.744 121.489 130.572C123.998 128.428 125.09 126.108 124.844 123.529C124.119 115.692 111.402 108.208 111.272 108.13C111.123 108.061 110.99 107.961 110.882 107.837C110.774 107.714 110.692 107.569 110.643 107.412C110.593 107.255 110.577 107.09 110.595 106.926C110.613 106.763 110.665 106.605 110.748 106.463C110.83 106.32 110.941 106.197 111.074 106.1C111.207 106.003 111.359 105.935 111.519 105.899C111.68 105.864 111.846 105.863 112.007 105.896C112.169 105.928 112.321 105.994 112.456 106.089C113.026 106.42 126.354 114.276 127.196 123.315C127.507 126.663 126.124 129.707 123.021 132.363C122.876 132.491 122.7 132.581 122.511 132.624Z" fill="#EB3651"/>
<path d="M122.1 137.408C121.892 137.449 121.676 137.435 121.475 137.365C121.274 137.296 121.096 137.174 120.958 137.012C120.82 136.85 120.728 136.654 120.691 136.445C120.654 136.235 120.674 136.02 120.749 135.821C125.841 122.552 109.439 115.159 108.737 114.855C108.595 114.793 108.466 114.702 108.358 114.59C108.251 114.478 108.166 114.345 108.11 114.2C108.053 114.055 108.026 113.9 108.029 113.744C108.032 113.589 108.066 113.435 108.129 113.293C108.192 113.15 108.282 113.022 108.394 112.914C108.507 112.806 108.639 112.722 108.784 112.665C108.929 112.609 109.084 112.581 109.24 112.585C109.395 112.588 109.549 112.622 109.691 112.685C109.878 112.766 128.86 121.293 122.961 136.669C122.892 136.855 122.777 137.02 122.627 137.15C122.476 137.279 122.295 137.368 122.1 137.408Z" fill="#EB3651"/>
<path d="M112.065 146.603C115.53 145.009 119.061 143.271 122.523 141.628C124.25 140.787 125.978 139.987 127.661 139.204C129.344 138.421 131.067 137.678 132.56 137.104C132.926 136.963 133.308 136.825 133.565 136.739C133.821 136.653 134.042 136.59 134.001 136.55C133.922 136.565 133.841 136.569 133.761 136.56L133.691 136.575L133.769 136.559L133.931 136.525L134.583 136.516L135.944 136.503C137.781 136.487 139.692 136.519 141.607 136.567C145.474 136.614 149.455 136.702 153.438 136.491L153.5 136.478C154.308 136.434 155.079 136.12 155.689 135.586C156.298 135.052 156.71 134.329 156.859 133.532C157.008 132.736 156.886 131.913 156.511 131.194C156.137 130.476 155.532 129.904 154.794 129.571C151.035 127.927 147.155 126.574 143.19 125.523C141.209 124.973 139.193 124.519 137.092 124.123C136.561 124.017 136.041 123.925 135.486 123.857L134.655 123.742L134.447 123.713L134.346 123.734L134.094 123.723C133.753 123.714 133.406 123.715 133.061 123.723C132.227 123.773 131.398 123.881 130.579 124.045C129.891 124.19 129.296 124.316 128.709 124.44C126.412 125.03 124.437 125.729 122.447 126.431C120.457 127.134 118.58 127.917 116.694 128.695C112.925 130.297 109.314 131.964 105.688 133.899C103.997 134.734 102.708 136.207 102.104 137.992C101.499 139.778 101.629 141.731 102.464 143.421C103.299 145.111 104.771 146.4 106.557 147.005C108.342 147.609 110.295 147.48 111.985 146.645L112.065 146.603Z" fill="#EB3651"/>
<path opacity="0.7" d="M112.065 146.603C115.53 145.009 119.061 143.271 122.523 141.628C124.25 140.787 125.978 139.987 127.661 139.204C129.344 138.421 131.067 137.678 132.56 137.104C132.926 136.963 133.308 136.825 133.565 136.739C133.821 136.653 134.042 136.59 134.001 136.55C133.922 136.565 133.841 136.569 133.761 136.56L133.691 136.575L133.769 136.559L133.931 136.525L134.583 136.516L135.944 136.503C137.781 136.487 139.692 136.519 141.607 136.567C145.474 136.614 149.455 136.702 153.438 136.491L153.5 136.478C154.308 136.434 155.079 136.12 155.689 135.586C156.298 135.052 156.71 134.329 156.859 133.532C157.008 132.736 156.886 131.913 156.511 131.194C156.137 130.476 155.532 129.904 154.794 129.571C151.035 127.927 147.155 126.574 143.19 125.523C141.209 124.973 139.193 124.519 137.092 124.123C136.561 124.017 136.041 123.925 135.486 123.857L134.655 123.742L134.447 123.713L134.346 123.734L134.094 123.723C133.753 123.714 133.406 123.715 133.061 123.723C132.227 123.773 131.398 123.881 130.579 124.045C129.891 124.19 129.296 124.316 128.709 124.44C126.412 125.03 124.437 125.729 122.447 126.431C120.457 127.134 118.58 127.917 116.694 128.695C112.925 130.297 109.314 131.964 105.688 133.899C103.997 134.734 102.708 136.207 102.104 137.992C101.499 139.778 101.629 141.731 102.464 143.421C103.299 145.111 104.771 146.4 106.557 147.005C108.342 147.609 110.295 147.48 111.985 146.645L112.065 146.603Z" fill="white"/>
<path d="M153.816 130.713L160.407 128.676L159.292 136.239C159.292 136.239 153.299 137.706 152.68 134.585L153.816 130.713Z" fill="#EB3651"/>
<path d="M167.027 130.33L163.86 136.51L159.287 136.216L160.402 128.653L167.027 130.33Z" fill="#EB3651"/>
<g opacity="0.5">
<path opacity="0.5" d="M153.816 130.713L160.407 128.676L159.292 136.24C159.292 136.24 153.299 137.706 152.68 134.585L153.816 130.713Z" fill="white"/>
<path opacity="0.5" d="M167.027 130.33L163.861 136.51L159.287 136.216L160.403 128.653L167.027 130.33Z" fill="white"/>
</g>
<path d="M155.833 130.061C155.833 130.061 152.548 132.772 154.45 136.317L152.877 136.512C152.877 136.512 150.21 133.201 154.843 129.576L155.833 130.061Z" fill="#EB3651"/>
<path d="M107.17 132.933C107.17 132.933 98.649 143.528 111.262 146.926L110.024 147.712C110.024 147.712 103.745 148.747 102.136 141.848C100.556 135.128 107.17 132.933 107.17 132.933Z" fill="#EB3651"/>
<path d="M133.079 123.695C133.079 123.695 130.501 129.033 134.024 136.545L133.114 136.899C132.065 134.9 131.424 132.714 131.226 130.465C131.029 128.217 131.279 125.952 131.964 123.801L133.079 123.695Z" fill="#EB3651"/>
<path opacity="0.4" d="M155.833 130.061C155.833 130.061 152.548 132.772 154.45 136.317L152.877 136.512C152.877 136.512 150.21 133.201 154.843 129.576L155.833 130.061Z" fill="white"/>
<path opacity="0.4" d="M107.17 132.933C107.17 132.933 98.649 143.528 111.262 146.926L110.024 147.712C110.024 147.712 103.745 148.747 102.136 141.848C100.556 135.128 107.17 132.933 107.17 132.933Z" fill="white"/>
<path opacity="0.4" d="M133.079 123.695C133.079 123.695 130.501 129.033 134.024 136.545L133.114 136.899C132.065 134.9 131.424 132.714 131.226 130.465C131.029 128.217 131.279 125.952 131.964 123.801L133.079 123.695Z" fill="white"/>
<path d="M105.435 98.9032L92.9671 117.183L87.5048 118.336L100.22 100.004C100.22 100.004 102.937 97.2758 105.435 98.9032Z" fill="#EB3651"/>
<path opacity="0.2" d="M105.435 98.9032L92.9671 117.183C92.0771 116.659 91.023 116.486 90.0122 116.7C89.0014 116.913 88.107 117.497 87.5048 118.336L100.22 100.004C100.22 100.004 102.937 97.2758 105.435 98.9032Z" fill="white"/>
<path d="M88.3875 103.898C88.1787 104.115 87.95 104.311 87.7046 104.486C87.2851 104.778 86.8162 104.992 86.3206 105.117C85.7488 105.237 85.2819 105.167 85.065 104.865C84.8481 104.564 85.0185 103.842 85.5294 103.242C85.7675 102.976 86.0376 102.74 86.3335 102.54C86.7024 102.271 87.1168 102.072 87.5568 101.951C88.1944 101.759 88.7325 101.823 88.9653 102.162C89.1981 102.5 88.9907 103.238 88.3875 103.898Z" fill="#263238"/>
<path d="M36.7076 53.5928L36.5642 53.2196C36.5642 53.2196 38.3085 52.5366 38.6943 51.3819L39.0672 51.5049C38.6153 52.8431 36.7816 53.5611 36.7076 53.5928Z" fill="white"/>
<path d="M36.9711 54.4976L36.7001 54.2078C38.0186 52.9953 39.5799 52.0771 41.2804 51.514L41.3619 51.9003C39.7333 52.4506 38.2377 53.3353 36.9711 54.4976Z" fill="white"/>
<path d="M37.0161 54.7867L36.7727 54.4749C38.9403 52.8149 40.1426 53.1583 40.1938 53.1717L40.0802 53.5508C40.0802 53.5508 38.9946 53.2635 37.0161 54.7867Z" fill="white"/>
<path d="M88.3875 103.898C88.1787 104.115 87.95 104.311 87.7046 104.486C87.2851 104.778 86.8162 104.992 86.3206 105.117C86.145 104.629 85.8934 103.972 85.5526 103.237C84.5323 100.826 82.8837 98.7323 80.7786 97.1752C74.507 93.0031 68.2304 93.8922 61.5874 94.8424C55.2334 95.7478 48.6599 96.6833 41.7994 93.2005C34.8035 89.6494 29.9087 81.2564 29.3128 71.8189C28.7846 63.3517 31.7812 56.0612 37.3382 52.2977L38.6646 54.2612C33.8134 57.5449 31.2002 64.0523 31.6792 71.6745C32.2214 80.2841 36.6139 87.9033 42.8736 91.1014C49.1333 94.2995 54.9853 93.3871 61.2559 92.5074C68.0413 91.5433 75.0694 90.544 82.1005 95.2176C84.4798 96.9503 86.3624 99.2774 87.5601 101.966C87.9082 102.659 88.1818 103.344 88.3875 103.898Z" fill="#263238"/>
<g opacity="0.5">
<path opacity="0.5" d="M88.3875 103.898C88.1787 104.115 87.95 104.311 87.7046 104.486C87.2851 104.778 86.8162 104.992 86.3206 105.117C86.145 104.629 85.8934 103.972 85.5526 103.237C84.5323 100.826 82.8837 98.7323 80.7786 97.1752C74.507 93.0031 68.2304 93.8922 61.5874 94.8424C55.2334 95.7478 48.6599 96.6833 41.7994 93.2005C34.8035 89.6494 29.9087 81.2564 29.3128 71.8189C28.7846 63.3517 31.7812 56.0612 37.3382 52.2977L38.6646 54.2612C33.8134 57.5449 31.2002 64.0523 31.6792 71.6745C32.2214 80.2841 36.6139 87.9033 42.8736 91.1014C49.1333 94.2995 54.9853 93.3871 61.2559 92.5074C68.0413 91.5433 75.0694 90.544 82.1005 95.2176C84.4798 96.9503 86.3624 99.2774 87.5601 101.966C87.9082 102.659 88.1818 103.344 88.3875 103.898Z" fill="white"/>
</g>
</svg>
