<svg width="83" height="58" viewBox="0 0 83 58" fill="none" xmlns="http://www.w3.org/2000/svg">
<path fill-rule="evenodd" clip-rule="evenodd" d="M82.2273 3.1078C82.1808 5.48553 79.6698 9.44343 75.6333 13.922C72.7095 17.1663 69.307 20.3023 66.4542 22.4154L66.2766 22.5459L66.3944 23.071C67.0881 26.1177 67.994 29.4298 67.6517 32.7699C66.8212 40.8765 60.4932 50.0227 52.131 54.5163C49.0813 56.2309 45.6145 57.2882 42.0584 57.7484L41.7194 57.7902C39.0679 58.1033 36.5306 58.0514 34.9801 57.7311C28.9615 56.4876 23.8663 52.2718 20.7855 46.1702C20.7752 46.1499 20.7671 46.1289 20.7612 46.1073C20.3557 46.3393 19.8099 46.5984 19.5607 46.683L18.878 46.9143C11.5203 49.3942 4.22582 51.4689 1.24607 50.174C0.11157 49.6811 -0.276239 48.7329 0.198375 47.4593C0.659455 46.2214 1.93769 44.6265 4.08255 42.6416L4.20039 42.5329C6.23255 40.6661 10.7458 37.2549 17.74 32.299L17.7416 32.2081C18.083 17.5236 29.4658 6.32939 43.7737 7.24317C48.15 7.52258 51.6352 9.081 53.3759 10.038L54.1415 9.62628C61.3214 5.77921 67.0823 3.07507 71.478 1.45656C78.7064 -1.20527 82.2812 0.0391251 82.2273 3.1078ZM71.7134 3.03392C63.6305 6.01023 50.8563 12.7043 33.0709 23.472L32.5302 23.7996C18.6813 32.2006 9.51075 38.583 4.66147 43.037L4.42253 43.2582L4.19596 43.4712C0.555849 46.9175 -0.0893355 48.8482 1.51768 49.5464C4.26853 50.7419 11.6556 48.7266 18.8901 46.3489L19.5607 46.1272C20.2059 45.913 20.6338 45.79 20.8987 45.7332C20.9101 45.725 20.9227 45.7176 20.936 45.7108C21.0265 45.665 21.1278 45.6633 21.2153 45.6977C21.2342 45.7014 21.2466 45.7073 21.2531 45.7155C21.3119 45.7475 21.3621 45.7971 21.3948 45.8616C24.3852 51.7848 29.3132 55.3943 35.118 56.5935C36.6249 56.9048 39.1669 56.9504 41.8123 56.6225L41.9712 56.6024C45.4454 56.1528 48.829 55.5883 51.8027 53.9167C59.9743 49.5253 66.1657 40.5768 66.9726 32.7C67.3175 29.3337 66.8774 26.0293 65.7075 22.9539C65.6109 23.0214 65.515 23.0878 65.42 23.1528C65.2403 23.2756 65.3075 23.0766 65.6211 22.5564C65.6377 22.4886 65.6753 22.4266 65.7289 22.3803L65.8255 22.2269C65.8594 22.1734 65.8948 22.118 65.9322 22.06L66.3368 21.7181C70.1493 18.4867 73.0794 15.7353 75.1267 13.4635L75.3605 13.2028C79.1486 8.95498 81.5034 5.20261 81.5422 3.09518C81.5849 0.783149 78.5407 0.519633 71.7134 3.03392ZM37.4406 46.2862C38.3563 49.0909 36.9709 50.8948 34.5323 50.9881C32.2789 51.0742 30.2269 49.6514 30.3315 47.6295C30.422 45.8822 31.616 44.0139 33.086 43.3281C34.8639 42.4983 36.5322 43.5049 37.4406 46.2862ZM33.4461 44.1033C32.2698 44.652 31.2581 46.235 31.1836 47.6737C31.1097 49.1068 32.6903 50.2027 34.4996 50.1337C36.3915 50.0613 37.3625 48.7968 36.6295 46.5521C35.8665 44.215 34.7061 43.5152 33.4461 44.1033ZM56.0595 40.5712C57.2281 42.7836 56.9222 44.9572 55.1255 45.9313L55.0751 45.9579L55.0492 45.9841C52.6397 48.3747 49.6296 48.6649 47.667 46.932L47.5996 46.8715C45.3387 44.7958 45.8773 41.2303 49.4752 38.435C51.7904 36.6362 54.6187 37.8425 56.0595 40.5712ZM49.9232 39.0141C46.6571 41.5518 46.1979 44.5908 48.0935 46.3309C49.4532 47.579 51.4623 47.648 53.3386 46.4368L53.3752 46.4122L53.3614 46.4094C53.2317 46.3751 53.1274 46.2701 53.0978 46.1331L53.0919 46.0982C53.0681 45.8974 53.2116 45.7152 53.4121 45.6914C53.8708 45.6369 54.2689 45.5258 54.6065 45.3671L54.6527 45.3444L54.7085 45.2864C54.9288 45.0542 55.1437 44.8017 55.3521 44.5283L55.4214 44.4365C55.4995 44.3315 55.623 44.2805 55.7443 44.2903L55.7536 44.2913L55.7585 44.2821C56.1965 43.4144 56.0929 42.239 55.4515 40.9876L55.4132 40.9139C54.1602 38.5411 51.8179 37.542 49.9232 39.0141ZM71.6728 12.7148C71.4847 13.384 70.9128 14.3022 70.0359 15.3897C68.5073 17.2853 66.211 19.4917 64.2038 21.0005L64.649 20.5097C64.6446 20.506 64.6411 20.5006 64.6378 20.4948L64.4841 20.2118C63.4798 18.3747 62.3607 16.5626 60.5523 15.0853C55.8712 17.0192 50.5037 19.6628 45.6138 22.4271L44.0108 23.335C32.2073 30.0352 25.9972 34.0464 19.3563 38.9777C19.6071 40.1087 19.9229 41.2125 20.3011 42.282C20.3606 42.4499 19.585 43.0779 19.4429 43.0003C18.1182 43.8898 16.0438 44.5358 14.8626 44.5695C13.7116 44.6022 13.0468 44.1353 13.3893 43.2045C13.6759 42.4256 14.7553 41.3147 16.6981 39.8262L16.9195 39.6578L17.3673 39.3207C24.6793 33.8352 31.9175 29.384 45.2783 21.8313L45.8376 21.517C55.0014 16.3912 65.613 11.7735 70.4734 11.3474C71.4726 11.2598 71.9257 11.8137 71.6728 12.7148ZM18.4673 39.6412L16.9354 40.7996C15.5687 41.838 14.5833 42.6059 14.0513 43.0985L14.0121 43.135C13.3625 43.7455 14.0977 43.9069 14.8433 43.8858C15.9726 43.8538 17.7024 42.9956 19.1668 42.2147C18.8962 41.3746 18.6626 40.5157 18.4673 39.6412ZM42.4299 35.9277C42.6124 35.974 42.723 36.1601 42.6766 36.3432C42.6301 36.5263 42.4446 36.6371 42.2619 36.5906C41.3439 36.357 40.8019 36.4468 40.626 36.6944C40.5093 36.8588 40.5739 37.1389 40.7921 37.3178C40.9627 37.4576 41.1897 37.5242 41.3458 37.4903C41.4816 37.4606 41.5579 37.3556 41.5579 37.0931C41.5579 36.9041 41.7108 36.751 41.8991 36.751C42.0876 36.751 42.2404 36.9041 42.2404 37.0931C42.2404 37.6641 41.9553 38.0573 41.4912 38.1586C41.1178 38.2399 40.6831 38.1121 40.36 37.8471C39.8828 37.456 39.7269 36.7807 40.0699 36.2978C40.4456 35.7685 41.2693 35.6324 42.4299 35.9277ZM27.4373 34.6721C27.9638 34.8301 28.1903 35.2351 28.262 35.8426L28.269 35.9085L28.2776 36.0086C28.2788 36.0252 28.2799 36.0423 28.2811 36.0605L28.2991 36.4077L28.3044 36.4861C28.3072 36.5204 28.3103 36.5485 28.3138 36.5735L28.3229 36.6256L28.3285 36.6488L28.338 36.6572C28.4433 36.7606 28.4713 36.9226 28.4031 37.0563L28.3856 37.0867C28.2834 37.2455 28.0723 37.2911 27.9138 37.1887C27.6959 37.0479 27.6464 36.903 27.62 36.487L27.5983 36.0797C27.5958 36.043 27.593 36.0112 27.5895 35.9752C27.5507 35.5767 27.4539 35.3911 27.2413 35.3272C26.6451 35.1484 26.3031 35.331 26.1948 35.7303C26.0982 36.0862 26.238 36.4601 26.4825 36.5639L26.5443 36.5871C26.7042 36.6556 26.7889 36.8359 26.735 37.0054C26.6778 37.1852 26.4858 37.2846 26.3063 37.2273C25.6563 37.0196 25.3475 36.2459 25.5361 35.5508C25.7466 34.7752 26.4785 34.3842 27.4373 34.6721ZM52.0613 29.4352C53.0065 30.7665 52.8308 32.4608 51.3143 33.2273C51.1461 33.3124 50.9408 33.2448 50.8558 33.076C50.7709 32.9074 50.8386 32.7017 51.0068 32.6168C52.1047 32.0617 52.2302 30.8531 51.505 29.8315C50.8008 28.8392 49.8203 28.7302 49.1464 29.8023C48.4321 30.9391 48.4842 31.6062 48.9984 31.9067C49.4066 32.1454 50.0641 32.0951 50.2447 31.9001L50.2622 31.8788C50.3716 31.725 50.5847 31.689 50.7382 31.7984C50.8918 31.9081 50.9277 32.1215 50.8183 32.2754C50.4389 32.8094 49.3561 32.9077 48.6545 32.4978C47.7561 31.9728 47.6703 30.8678 48.5689 29.438C49.5309 27.9067 51.1004 28.0813 52.0613 29.4352ZM37.9106 27.4739C38.0882 27.4739 38.2338 27.6097 38.2503 27.783L38.252 27.816C38.252 27.8763 38.3077 27.9434 38.5082 28.0907L38.6976 28.227C38.9041 28.3778 39.0038 28.4716 39.0981 28.6208C39.3132 28.9617 39.4352 29.3089 39.4352 29.7172C39.4352 30.7623 37.8681 32.184 36.1577 32.8167C34.1071 33.575 32.4273 33.0126 31.9702 30.9043C31.9301 30.7195 32.047 30.5374 32.2313 30.4974C32.4154 30.4572 32.5972 30.5743 32.6373 30.7591C32.992 32.3953 34.2168 32.8052 35.9214 32.1749C37.3933 31.6305 38.7525 30.3973 38.7525 29.7172C38.7525 29.4539 38.6727 29.2266 38.521 28.9865L38.5005 28.9575C38.4657 28.9135 38.4113 28.8658 38.3136 28.7931L38.0884 28.6306C37.7143 28.3542 37.5694 28.1676 37.5694 27.816C37.5694 27.627 37.7223 27.4739 37.9106 27.4739ZM39.5127 8.5175L39.2973 8.54182C27.6506 9.94545 18.9137 19.2798 18.4372 31.8059L19.6867 30.9248C23.2736 28.4019 27.4369 25.5201 32.1767 22.2791L33.1003 21.7198C35.8577 20.0528 38.4942 18.4841 41.0107 17.0125C40.9648 16.9318 40.9519 16.8327 40.9832 16.7375C41.1591 16.1992 41.3218 15.8375 41.6198 15.4753C42.5522 14.3418 43.8297 13.7881 44.7348 14.4998C44.824 14.57 44.869 14.6754 44.8653 14.7809L45.6694 14.3212C48.2013 12.8769 50.5973 11.5429 52.8583 10.3177L51.9752 10.0659C50.6654 9.69642 49.036 9.25824 47.4129 8.92107C47.4278 10.0032 46.6193 10.8674 45.2762 11.462C44.1342 11.9673 42.6464 12.2392 41.5885 12.1759C39.6093 12.0578 38.4953 10.3182 39.5127 8.5175ZM59.943 23.3703C60.7781 25.6568 60.0891 27.7362 58.0035 27.7227C55.0322 27.7033 52.1306 25.1034 52.5998 22.7743C52.8089 21.7354 53.5885 20.8163 54.9439 20.3575C57.1086 19.625 59.0927 21.0426 59.943 23.3703ZM55.1624 21.0057C54.0421 21.3847 53.4307 22.1056 53.2688 22.9097C52.8966 24.7583 55.4228 27.0217 58.0079 27.0387C59.4889 27.0483 59.9981 25.5116 59.3018 23.6055C58.5652 21.5883 56.918 20.4115 55.1624 21.0057ZM30.0654 12.9091L30.0897 12.9444L30.254 13.2061C30.3345 13.3391 30.4066 13.4694 30.4752 13.6101C31.231 15.1587 31.2116 17.189 29.9322 20.0072C29.3528 21.2839 27.8765 22.9997 26.5873 24.0236C24.9411 25.3311 23.7118 25.6281 22.2448 25.4665L21.8094 25.4153L21.7564 25.4104C21.7273 25.4083 21.7086 25.4083 21.6883 25.4088L21.6584 25.4102C21.6358 25.4111 21.6279 25.4102 21.6265 25.4071V25.4048L21.6155 25.4226C21.5166 25.5647 21.3243 25.6115 21.1698 25.5254C21.0051 25.4335 20.9458 25.2254 21.0375 25.0604C21.1603 24.8392 21.3651 24.7393 21.626 24.7269C21.6953 24.7237 21.7683 24.726 21.8554 24.7332L21.9571 24.7431L22.2388 24.7774C23.5751 24.9397 24.6382 24.6986 26.1633 23.4877C27.3741 22.526 28.7816 20.8902 29.3108 19.7241C30.5081 17.0868 30.5256 15.27 29.862 13.9106C29.8176 13.8201 29.7717 13.7341 29.7217 13.6475L29.6503 13.5281L29.5071 13.3012C29.407 13.1413 29.4553 12.9302 29.6149 12.8299C29.7647 12.7356 29.959 12.7723 30.0654 12.9091ZM70.5329 12.0288C68.351 12.2201 64.9307 13.3001 60.9875 14.9067L61.1027 15.0088C62.2001 15.9953 64.4143 18.335 65.1073 20.0037L65.7975 19.2366C67.5009 17.3382 68.7367 15.9126 69.5051 14.9597L69.6605 14.7645C70.3948 13.8306 70.8694 13.0504 71.0157 12.5296L71.0365 12.4506C71.1275 12.0749 71.022 11.9858 70.5329 12.0288ZM37.8522 13.1397C38.7016 13.5512 39.0465 14.4676 38.4876 15.2981C38.3822 15.4547 38.1701 15.4961 38.0137 15.3904C37.8574 15.285 37.8163 15.0724 37.9215 14.9158C38.2291 14.4589 38.0555 13.998 37.555 13.7556C37.0281 13.5002 36.4506 13.6471 36.1526 14.2045C35.878 14.7182 35.8591 15.4134 36.0784 15.8688C36.2709 16.2687 36.5509 16.3454 36.9784 16.0229C37.1291 15.9093 37.3431 15.9395 37.4565 16.0905C37.5697 16.2413 37.5396 16.4557 37.3891 16.5694C36.6099 17.157 35.839 16.9461 35.4635 16.166C35.1488 15.5123 35.174 14.5866 35.5508 13.8814C36.0317 12.9821 37.0122 12.7328 37.8522 13.1397ZM42.1464 15.9105C41.9873 16.1038 41.8736 16.308 41.7682 16.5698C42.6476 16.058 43.5121 15.5576 44.362 15.0694L44.3372 15.0549L44.3134 15.0378C43.7924 14.628 42.8737 15.0261 42.1464 15.9105ZM40.6908 8.41297L40.3924 8.43402L40.3723 8.45927C39.1926 9.95339 39.6471 11.166 41.2583 11.3383C42.4154 11.462 45.4874 10.6015 45.8479 10.2997C46.1988 10.0055 46.6426 9.32932 46.711 8.78125C45.6684 8.58484 44.6485 8.44056 43.7387 8.3938C42.8091 8.34633 41.8923 8.34727 40.9909 8.39521L40.6908 8.41297Z" fill="#DADADA"/>
<path d="M71.6666 3.13029C78.9398 0.459734 78.7731 1.25217 71.9035 3.77447C63.7709 6.76055 33.0723 25.4716 33.0723 25.4716C19.1381 33.9002 18.0957 32.5991 31.6016 24.3974L32.4341 23.8928C32.591 23.7978 47.9679 14.1008 58.9556 8.91267C60.1922 8.32902 70.8386 3.43432 71.6666 3.13029Z" fill="white"/>
</svg>
