<svg width="189" height="158" viewBox="0 0 189 158" fill="none" xmlns="http://www.w3.org/2000/svg">
<path fill-rule="evenodd" clip-rule="evenodd" d="M223.998 8.46607C223.872 14.9433 217.032 25.7252 206.035 37.9256C198.071 46.7634 188.802 55.3064 181.03 61.0626L180.547 61.418L180.868 62.8486C182.757 71.1482 185.225 80.1708 184.292 89.2698C182.03 111.353 164.792 136.269 142.012 148.51C133.704 153.181 124.26 156.061 114.573 157.315L113.649 157.429C106.426 158.281 99.5144 158.14 95.2905 157.267C78.8952 153.88 65.0151 142.396 56.6226 125.774C56.5946 125.719 56.5724 125.661 56.5565 125.603C55.4517 126.235 53.9649 126.94 53.2861 127.171L51.4262 127.801C31.3828 134.557 11.5117 140.208 3.39447 136.681C0.303932 135.338 -0.752513 132.755 0.5404 129.286C1.79645 125.914 5.27854 121.569 11.1214 116.162L11.4424 115.866C16.9783 110.78 29.2731 101.487 48.3261 87.987L48.3305 87.7392C49.2605 47.7367 80.2688 17.2421 119.246 19.7314C131.167 20.4926 140.661 24.7379 145.403 27.345L147.489 26.2233C167.048 15.7434 182.741 8.37691 194.716 3.96786C214.407 -3.28332 224.145 0.106582 223.998 8.46607ZM195.357 8.2648C173.338 16.3727 138.54 34.6083 90.0896 63.941L88.6168 64.8334C50.8903 87.7188 25.9086 105.105 12.6985 117.239L12.0476 117.841L11.4304 118.422C1.51421 127.81 -0.243362 133.069 4.13437 134.971C11.6281 138.228 31.7515 132.738 51.4592 126.261L53.2861 125.657C55.0436 125.073 56.2094 124.738 56.9309 124.584C56.962 124.561 56.9964 124.541 57.0326 124.522C57.2792 124.398 57.5551 124.393 57.7935 124.487C57.845 124.497 57.8786 124.513 57.8964 124.535C58.0566 124.622 58.1933 124.758 58.2823 124.933C66.4288 141.069 79.8531 150.902 95.6662 154.169C99.7712 155.016 106.696 155.141 113.902 154.248L114.335 154.193C123.799 152.968 133.017 151.43 141.118 146.877C163.378 134.914 180.245 110.537 182.443 89.0794C183.382 79.909 182.183 70.9075 178.996 62.5295C178.733 62.7136 178.472 62.8945 178.213 63.0716C177.724 63.406 177.907 62.8639 178.761 61.4467C178.806 61.2619 178.908 61.0932 179.055 60.967L179.318 60.5492C179.41 60.4033 179.507 60.2524 179.608 60.0944L180.711 59.1632C191.096 50.3603 199.078 42.8652 204.656 36.6765L205.292 35.9663C215.612 24.3946 222.027 14.1726 222.132 8.43169C222.248 2.1334 213.956 1.41555 195.357 8.2648ZM101.993 126.09C104.488 133.73 100.714 138.645 94.0707 138.899C87.9322 139.133 82.3423 135.257 82.6271 129.749C82.8737 124.989 86.1263 119.9 90.1309 118.032C94.974 115.771 99.5189 118.513 101.993 126.09ZM91.1117 120.143C87.9074 121.638 85.1513 125.951 84.9485 129.87C84.747 133.774 89.0529 136.759 93.9817 136.571C99.1356 136.374 101.781 132.929 99.7839 126.814C97.7054 120.448 94.5443 118.541 91.1117 120.143ZM152.714 110.521C155.897 116.548 155.064 122.47 150.169 125.123L150.032 125.196L149.962 125.267C143.398 131.779 135.198 132.57 129.851 127.849L129.668 127.684C123.509 122.03 124.976 112.317 134.777 104.702C141.084 99.802 148.789 103.088 152.714 110.521ZM135.998 106.28C127.1 113.193 125.849 121.471 131.013 126.212C134.717 129.612 140.19 129.8 145.302 126.5L145.401 126.433L145.364 126.426C145.01 126.332 144.726 126.046 144.646 125.673L144.63 125.578C144.565 125.031 144.956 124.535 145.502 124.47C146.752 124.321 147.836 124.019 148.756 123.586L148.882 123.524L149.034 123.366C149.634 122.734 150.219 122.046 150.787 121.301L150.975 121.051C151.188 120.765 151.525 120.626 151.855 120.653L151.881 120.655L151.894 120.631C153.087 118.267 152.805 115.065 151.057 111.656L150.953 111.455C147.54 104.991 141.159 102.27 135.998 106.28ZM195.247 34.6369C194.734 36.4599 193.176 38.9613 190.788 41.9238C186.623 47.0876 180.368 53.098 174.9 57.2083L176.113 55.8713C176.101 55.8612 176.091 55.8465 176.082 55.8306L175.663 55.0598C172.928 50.0552 169.879 45.1188 164.953 41.0945C152.201 46.3628 137.579 53.5643 124.258 61.0944L119.891 63.5678C87.7371 81.8199 70.8199 92.747 52.7292 106.181C53.4126 109.262 54.2726 112.269 55.303 115.182C55.4651 115.639 53.3522 117.35 52.9651 117.139C49.3565 119.562 43.7055 121.322 40.4879 121.413C37.3522 121.503 35.5412 120.231 36.4744 117.695C37.2549 115.573 40.1955 112.547 45.4879 108.492L46.0911 108.033L47.3109 107.115C67.2297 92.1718 86.9476 80.046 123.344 59.4715L124.868 58.6154C149.831 44.6519 178.739 32.0725 191.979 30.912C194.701 30.6731 195.936 32.1821 195.247 34.6369ZM50.3074 107.988L46.1344 111.144C42.4114 113.972 39.727 116.064 38.2777 117.406L38.1709 117.506C36.4013 119.169 38.4042 119.608 40.4351 119.551C43.5117 119.464 48.2237 117.126 52.2131 114.999C51.4757 112.71 50.8394 110.37 50.3074 107.988ZM115.585 97.872C116.082 97.9981 116.383 98.5051 116.257 99.0039C116.13 99.5026 115.625 99.8045 115.127 99.6778C112.627 99.0414 111.15 99.286 110.671 99.9606C110.353 100.408 110.529 101.171 111.123 101.659C111.588 102.04 112.206 102.221 112.632 102.129C113.002 102.048 113.21 101.762 113.21 101.047C113.21 100.532 113.626 100.115 114.139 100.115C114.652 100.115 115.069 100.532 115.069 101.047C115.069 102.602 114.292 103.673 113.028 103.949C112.011 104.171 110.826 103.822 109.946 103.101C108.646 102.035 108.222 100.196 109.156 98.8803C110.179 97.4382 112.423 97.0675 115.585 97.872ZM74.7431 94.4515C76.1771 94.8821 76.7943 95.9853 76.9895 97.6401L77.0085 97.8198L77.0321 98.0924C77.0353 98.1376 77.0384 98.1841 77.0416 98.2338L77.0906 99.1797L77.1052 99.3931C77.1128 99.4867 77.1211 99.5631 77.1306 99.6313L77.1554 99.7733L77.1706 99.8364L77.1967 99.8593C77.4834 100.141 77.5597 100.582 77.3741 100.947L77.3264 101.029C77.048 101.462 76.4727 101.586 76.0411 101.307C75.4474 100.924 75.3126 100.529 75.2408 99.3956L75.1817 98.286C75.1747 98.186 75.1671 98.0994 75.1575 98.0013C75.052 96.9159 74.7882 96.4102 74.2091 96.2363C72.5851 95.749 71.6532 96.2465 71.3583 97.3344C71.0951 98.3038 71.4759 99.3224 72.142 99.6052L72.3105 99.6682C72.7459 99.8549 72.9766 100.346 72.8298 100.808C72.6741 101.298 72.1509 101.568 71.6621 101.412C69.8912 100.847 69.0502 98.7389 69.5638 96.8452C70.1372 94.7324 72.1312 93.6674 74.7431 94.4515ZM141.822 80.1855C144.397 83.8123 143.918 88.4277 139.787 90.5157C139.329 90.7476 138.77 90.5635 138.538 90.1036C138.307 89.6443 138.491 89.0838 138.95 88.8526C141.94 87.3405 142.282 84.048 140.307 81.2651C138.388 78.5618 135.717 78.265 133.882 81.1855C131.936 84.2824 132.078 86.0997 133.479 86.9182C134.59 87.5685 136.382 87.4315 136.874 86.9003L136.921 86.8423C137.219 86.4232 137.8 86.3251 138.218 86.6232C138.636 86.922 138.734 87.5035 138.436 87.9226C137.402 89.3775 134.453 89.645 132.542 88.5284C130.094 87.0984 129.86 84.0881 132.308 80.1931C134.929 76.0216 139.204 76.4974 141.822 80.1855ZM103.274 74.8426C103.757 74.8426 104.154 75.2127 104.199 75.6847L104.204 75.7745C104.204 75.9388 104.356 76.1216 104.902 76.5229L105.418 76.8943C105.98 77.3051 106.252 77.5605 106.508 77.9669C107.095 78.8956 107.427 79.8415 107.427 80.9536C107.427 83.8008 103.158 87.6736 98.4986 89.3972C92.9125 91.4629 88.3365 89.931 87.0912 84.1875C86.9819 83.6843 87.3004 83.1881 87.8025 83.0792C88.3041 82.9696 88.7992 83.2887 88.9086 83.7919C89.8748 88.2494 93.2113 89.366 97.8547 87.6488C101.864 86.1659 105.567 82.8065 105.567 80.9536C105.567 80.2364 105.35 79.6173 104.937 78.9631L104.881 78.8841C104.786 78.7644 104.638 78.6345 104.371 78.4364L103.758 77.9937C102.739 77.2408 102.344 76.7325 102.344 75.7745C102.344 75.2598 102.761 74.8426 103.274 74.8426ZM107.638 23.2028L107.051 23.2691C75.3241 27.0928 51.5234 52.5209 50.2254 86.6436L53.6293 84.2435C63.4005 77.3707 74.7418 69.5202 87.6538 60.6912L90.1697 59.1676C97.6812 54.6267 104.863 50.3533 111.719 46.3443C111.594 46.1245 111.559 45.8545 111.644 45.5952C112.123 44.129 112.566 43.1436 113.378 42.1569C115.918 39.0689 119.398 37.5606 121.864 39.4995C122.107 39.6906 122.229 39.9779 122.219 40.2651L124.41 39.0129C131.307 35.0783 137.834 31.4445 143.993 28.1068L141.587 27.4208C138.02 26.4144 133.581 25.2207 129.159 24.3022C129.2 27.2501 126.997 29.6043 123.339 31.2241C120.228 32.6006 116.175 33.3414 113.293 33.1687C107.901 32.8471 104.867 28.1081 107.638 23.2028ZM163.293 63.6639C165.568 69.8928 163.691 75.5573 158.01 75.5203C149.915 75.4675 142.011 68.3851 143.289 62.0403C143.859 59.2103 145.982 56.7064 149.675 55.4567C155.572 53.4611 160.977 57.323 163.293 63.6639ZM150.27 57.2223C147.218 58.2549 145.553 60.2186 145.112 62.4091C144.098 67.4449 150.979 73.6107 158.022 73.6572C162.056 73.6833 163.443 69.4972 161.546 64.3047C159.54 58.8096 155.053 55.6038 150.27 57.2223ZM81.9024 35.1662L81.9685 35.2624L82.416 35.9752C82.6353 36.3376 82.8318 36.6924 83.0186 37.0759C85.0775 41.2945 85.0248 46.8252 81.5395 54.5025C79.9612 57.9803 75.9394 62.6543 72.4274 65.4436C67.9429 69.0055 64.5943 69.8144 60.598 69.3743L59.4118 69.2348L59.2675 69.2214C59.1881 69.2157 59.1372 69.2157 59.0819 69.217L59.0006 69.2208C58.9389 69.2233 58.9173 69.2208 58.9135 69.2125V69.2061L58.8836 69.2545C58.6141 69.6418 58.0903 69.7692 57.6695 69.5348C57.2207 69.2845 57.0593 68.7176 57.3091 68.2679C57.6434 67.6653 58.2015 67.3933 58.9122 67.3596C59.101 67.3507 59.3 67.357 59.5371 67.3768L59.8142 67.4035L60.5814 67.4972C64.2218 67.9392 67.1178 67.2825 71.2724 63.9837C74.5708 61.3639 78.4051 56.9077 79.8467 53.7311C83.1083 46.5468 83.1559 41.5977 81.3482 37.8944C81.2274 37.6479 81.1021 37.4135 80.9661 37.1778L80.7716 36.8523L80.3813 36.2344C80.1086 35.7988 80.2402 35.2236 80.675 34.9503C81.0831 34.6936 81.6126 34.7936 81.9024 35.1662ZM192.141 32.7681C186.197 33.2891 176.88 36.2312 166.138 40.6078L166.452 40.8862C169.442 43.5735 175.473 49.947 177.361 54.493L179.242 52.4031C183.882 47.2316 187.248 43.348 189.341 40.7524L189.765 40.2205C191.765 37.6765 193.058 35.551 193.457 34.1325L193.513 33.9172C193.761 32.8936 193.474 32.6509 192.141 32.7681ZM103.115 35.7943C105.429 36.9153 106.368 39.4116 104.846 41.6741C104.558 42.1009 103.98 42.2136 103.555 41.9257C103.129 41.6384 103.017 41.0594 103.304 40.6327C104.141 39.388 103.668 38.1326 102.305 37.472C100.87 36.7765 99.2964 37.1765 98.4847 38.695C97.7365 40.0944 97.685 41.9881 98.2825 43.2289C98.8069 44.3181 99.5697 44.5271 100.734 43.6487C101.145 43.3391 101.728 43.4213 102.037 43.8328C102.345 44.2436 102.263 44.8277 101.853 45.1373C99.7305 46.7379 97.6303 46.1634 96.6076 44.0385C95.7501 42.2576 95.8187 39.7358 96.8453 37.8147C98.1554 35.365 100.826 34.686 103.115 35.7943ZM114.813 43.3423C114.379 43.8691 114.07 44.4251 113.782 45.1385C116.178 43.7442 118.533 42.3811 120.848 41.0511L120.781 41.0117L120.716 40.9652C119.296 39.8486 116.794 40.9333 114.813 43.3423ZM110.847 22.9181L110.034 22.9754L109.98 23.0442C106.766 27.1144 108.004 30.4177 112.393 30.8871C115.546 31.2241 123.914 28.8801 124.896 28.0577C125.852 27.2565 127.061 25.4144 127.247 23.9213C124.407 23.3863 121.629 22.9933 119.15 22.8659C116.618 22.7366 114.12 22.7391 111.665 22.8697L110.847 22.9181Z" fill="#DADADA"/>
<path d="M195.23 8.52736C215.043 1.25238 214.589 3.41108 195.875 10.2822C173.721 18.4167 90.0934 69.3882 90.0934 69.3882C52.1347 92.3487 49.295 88.8045 86.0872 66.4619L88.355 65.0873C88.7823 64.8285 130.671 38.4126 160.603 24.2794C163.972 22.6894 192.974 9.35557 195.23 8.52736Z" fill="white"/>
</svg>
