<svg width="45" height="34" viewBox="0 0 45 34" fill="none" xmlns="http://www.w3.org/2000/svg">
<path fill-rule="evenodd" clip-rule="evenodd" d="M24.4647 7.01988C25.5157 6.88805 26.5664 6.75496 27.6182 6.62981C27.6424 6.62689 27.7114 6.72341 27.7009 6.75101C27.1362 8.2479 28.3493 9.03021 29.0241 10.0144C29.4144 10.5831 29.9471 11.0555 30.3231 11.6316C31.1896 12.9589 32.0583 14.2916 32.808 15.6859C33.2011 16.4164 33.2633 17.3207 33.6243 18.075C34.0035 18.8677 34.5274 19.5305 35.3802 20.0144C36.3608 20.571 37.1236 21.4976 38.026 22.2061C40.6555 24.2701 42.5685 26.8969 44.1013 29.8309C44.7301 31.034 44.7231 32.2786 43.7721 33.2249C43.3584 33.6366 42.4606 33.6513 41.7754 33.6829C39.9389 33.7682 38.295 32.9821 36.66 32.3118C35.0756 31.6622 33.6223 30.7299 32.2713 29.6607C32.1355 29.5532 31.9852 29.4576 31.875 29.3288C31.8212 29.2657 31.8438 29.1372 31.8321 29.0387C31.9152 29.0699 32.0025 29.0933 32.081 29.1339C33.9774 30.113 35.8713 31.0959 37.7688 32.0731C38.0439 32.2149 38.335 32.3255 38.6145 32.4587C39.652 32.9534 40.6256 32.0333 40.6634 31.0995C40.6952 30.3114 40.4421 29.5994 39.7822 29.0007C39.0474 28.3344 38.5083 27.4572 37.8152 26.7383C37.0952 25.9914 36.2753 25.3421 35.5318 24.6169C34.7448 23.8486 34.0261 23.0092 33.2194 22.2637C32.7829 21.8602 32.1943 21.6256 31.7276 21.2487C30.5568 20.304 29.4433 19.2875 28.2552 18.3666C27.4979 17.7799 26.632 17.3364 25.8458 16.7843C25.0835 16.249 24.3676 15.6488 23.6173 15.0959C23.3728 14.9157 23.0718 14.8141 22.8172 14.6451C21.6878 13.8967 20.5808 13.1139 19.4373 12.3889C18.5434 11.8221 17.5946 11.3425 16.6932 10.787C15.3991 9.98999 14.1361 9.14146 12.8387 8.34977C12.0613 7.87531 11.2404 7.47235 10.4438 7.02838C9.83692 6.68956 9.25425 6.3027 8.63097 5.99846C7.559 5.47532 6.46666 4.99297 5.37726 4.50688C4.60846 4.16387 3.83841 3.82129 3.05301 3.52019C2.56191 3.33222 2.04181 3.2174 1.52994 3.08854C1.50167 3.08125 1.36293 3.28657 1.38758 3.32871C1.86682 4.16596 2.33295 5.0134 2.8671 5.81506C3.17233 6.27376 3.57899 6.66961 3.9664 7.06804C4.57692 7.69644 5.18029 8.33692 5.84089 8.9092C6.58654 9.55519 7.38922 10.1356 8.17797 10.7303C8.23627 10.7746 8.44202 10.7419 8.47579 10.6846C9.07336 9.66316 9.4061 9.48346 10.5698 9.99996C12.4884 10.8512 14.3638 11.8014 16.248 12.729C17.147 13.1719 18.0446 13.6248 18.9041 14.1381C19.5066 14.4973 20.0359 14.9777 20.612 15.3836C21.4048 15.9423 22.1721 16.5541 23.0216 17.0102C24.0264 17.5495 24.6946 18.3838 25.3328 19.2647C25.4213 19.3868 25.3315 19.6388 25.3241 19.8304C25.1991 19.737 25.0723 19.6459 24.9493 19.5494C23.7106 18.5785 22.4839 17.5918 21.23 16.6402C20.3026 15.9358 19.3541 15.2558 18.3889 14.6038C17.7325 14.1595 17.0549 13.7354 16.3458 13.3839C14.7387 12.587 13.1111 11.8313 11.482 11.0791C10.896 10.8087 10.2688 10.6257 9.68636 10.3489C9.28439 10.1583 9.15232 10.1314 9.2163 10.6615C9.53905 13.3308 10.6321 15.6554 12.3967 17.6449C12.9594 18.2791 13.7518 18.7053 14.4014 19.2703C14.5701 19.4171 14.6313 19.7212 14.6778 19.9657C14.7215 20.1941 14.6139 20.4647 14.6939 20.6695C14.784 20.8998 15.0091 21.0769 15.1754 21.2772C15.3302 21.0971 15.5283 20.9383 15.6307 20.7319C15.8098 20.3707 16.0239 20.2538 16.4281 20.3746C18.2406 20.9155 19.7807 21.8962 20.9949 23.326C21.2488 23.6252 21.1584 24.2175 21.2245 24.6748C21.235 24.7468 21.2679 24.8485 21.2342 24.8891C20.969 25.2027 20.9955 25.4549 21.401 25.6827C23.8501 27.0578 26.4402 27.9031 29.2928 27.6297C30.2385 27.539 31.1735 27.338 32.1138 27.1913C32.227 27.174 32.3438 27.1805 32.4594 27.1762C32.3771 27.2829 32.3165 27.4248 32.2092 27.491C30.7856 28.3699 29.2358 28.4818 27.6157 28.2961C25.8239 28.0907 24.1551 27.5191 22.5336 26.7686C21.612 26.3421 20.618 26.0286 19.779 25.4778C18.5464 24.6695 17.3938 23.7289 16.2617 22.7787C15.2083 21.895 14.0631 21.0482 13.2491 19.966C11.8291 18.0788 10.5194 16.1022 9.50873 13.933C9.06517 12.9809 8.3089 12.1497 7.5917 11.3571C6.76742 10.4465 5.90634 9.5335 4.92222 8.81119C3.31399 7.63086 2.00444 6.20688 1.15053 4.43943C0.735643 3.58007 0.49996 2.52433 0.551717 1.57682C0.617844 0.359463 1.25374 0.11135 2.73354 0.255857C3.56117 0.33643 4.3833 0.676126 5.16279 1.00611C6.56179 1.59827 7.93655 2.25099 9.30229 2.91759C10.142 3.32741 10.9577 3.79047 11.7632 4.26518C12.3184 4.59277 12.8104 5.03465 13.3824 5.32239C13.7598 5.51234 14.2352 5.61536 14.6564 5.58929C15.6722 5.52482 16.6926 5.2102 17.6914 5.27794C18.8737 5.35847 20.0451 5.69618 21.2028 5.99432C22.068 6.21746 22.9036 6.55422 23.7587 6.89281C23.6588 7.59263 24.1991 7.75822 24.5883 8.00726C24.9808 8.25798 25.4408 8.40666 25.8236 8.66925C26.381 9.05212 26.885 9.51133 27.4326 9.90974C27.8048 10.1804 28.2005 10.4252 28.6096 10.6354C28.7644 10.715 28.9862 10.6655 29.1772 10.6748C29.0836 10.5521 28.9975 10.4227 28.8948 10.3081C28.6737 10.063 28.4791 9.77297 28.2118 9.59398C27.0706 8.82986 25.9046 8.10264 24.7541 7.35216C24.6355 7.27494 24.5601 7.13199 24.4647 7.01988ZM31.6275 20.2332C31.955 20.4268 32.329 20.57 32.6016 20.8229C33.6608 21.8061 34.6823 22.8296 35.728 23.8269C36.4958 24.5592 37.3146 25.2407 38.0471 26.0061C38.7679 26.7597 39.476 27.5438 40.0682 28.3984C40.9185 29.6246 41.5472 30.9756 41.0094 32.5159C40.8133 33.0779 41.0226 33.1546 41.4532 33.2909C42.5022 33.6239 43.6476 32.4439 43.8002 31.3898C43.9913 30.0666 43.2679 29.0476 42.5636 28.0724C41.1689 26.1418 39.6182 24.3559 37.7077 22.8882C36.5326 21.9858 35.5138 20.8816 34.3712 19.933C32.9693 18.7698 31.5226 17.6594 30.0739 16.554C28.9766 15.7173 27.8588 14.9055 26.725 14.1188C25.8708 13.5258 24.9763 12.9912 24.1005 12.4292C23.0352 11.7457 21.9818 11.0429 20.9037 10.3805C19.7701 9.68377 18.6125 9.02595 17.4666 8.34846C17.1144 8.14008 16.7633 7.92844 16.4179 7.70907C15.6839 7.24214 14.9729 6.73593 14.2171 6.30867C13.535 5.92287 12.7902 5.64947 12.1013 5.27465C11.184 4.77509 10.3096 4.19523 9.38787 3.70429C7.97602 2.95172 6.55312 2.21561 5.10827 1.52883C4.0898 1.04487 3.02968 0.67809 1.85289 0.88535C1.24893 0.991901 0.925794 1.29224 1.06819 1.895C1.18425 2.38539 1.23043 3.00994 2.07451 2.79903C2.47601 2.6984 2.96528 2.68106 3.34564 2.81797C4.28952 3.15732 5.19697 3.59886 6.1123 4.01494C6.89823 4.37231 7.69596 4.71287 8.45003 5.13042C9.48379 5.70225 10.4706 6.35825 11.4973 6.94319C12.2138 7.35172 12.9862 7.66404 13.692 8.08794C14.4625 8.55045 15.1611 9.13301 15.9353 9.58829C16.7966 10.0946 17.7409 10.4631 18.5884 10.9894C19.5612 11.5939 20.4503 12.331 21.4067 12.9641C22.619 13.7658 23.8719 14.5063 25.0879 15.3026C25.6313 15.6582 26.1104 16.1113 26.6492 16.4745C27.3221 16.9279 28.0688 17.2806 28.7087 17.7738C29.6763 18.5189 30.5796 19.3478 31.6275 20.2332ZM31.4354 14.1975C30.8262 13.5478 30.2658 12.8419 29.5971 12.261C28.464 11.2771 27.2978 10.323 26.0785 9.45012C25.1544 8.78837 24.1543 8.21508 23.136 7.70607C21.8784 7.0778 20.607 6.42146 19.2665 6.03481C18.2983 5.75551 17.2079 5.86392 16.1725 5.87494C15.9516 5.87709 15.7335 6.20543 15.5144 6.38394C15.7075 6.49495 15.9085 6.59404 16.0914 6.71984C16.3027 6.86516 16.4819 7.06158 16.7024 7.18805C18.1389 8.01119 19.6023 8.78832 21.0175 9.64638C22.1534 10.3347 23.2284 11.1227 24.3388 11.8538C25.2077 12.4257 26.0921 12.9744 26.9643 13.5409C27.1582 13.667 27.3249 13.8341 27.5151 13.9661C27.8118 14.1728 28.1143 14.371 28.4202 14.5631C28.946 14.8937 29.5008 15.1838 29.9997 15.5505C30.8468 16.1727 31.657 16.8456 32.4923 17.4847C32.5719 17.5458 32.7178 17.5206 32.8328 17.5354C32.8421 17.431 32.8928 17.3065 32.8542 17.2246C32.393 16.2469 31.9189 15.2755 31.4354 14.1975ZM18.3243 21.8511C17.7159 21.532 17.1093 21.2101 16.4982 20.8964C16.3862 20.8392 16.2572 20.8148 16.1361 20.7752C16.131 20.9164 16.068 21.0941 16.1305 21.1929C16.4526 21.7049 16.7414 22.2628 17.1636 22.6821C18.0721 23.5833 19.191 24.1457 20.4604 24.375C20.5836 24.3972 20.7211 24.3418 20.852 24.322C20.8161 24.1631 20.8345 23.9439 20.7355 23.8541C19.9796 23.1679 19.2008 22.5071 18.3243 21.8511Z" fill="#EF5E74"/>
</svg>
